<?xml version="1.0" standalone="no"?>
<!DOCTYPE svg PUBLIC "-//W3C//DTD SVG 20010904//EN"
 "http://www.w3.org/TR/2001/REC-SVG-20010904/DTD/svg10.dtd">
<svg version="1.0" xmlns="http://www.w3.org/2000/svg"
 width="984.000000pt" height="1014.000000pt" viewBox="0 0 984.000000 1014.000000"
 preserveAspectRatio="xMidYMid meet">

<g transform="translate(0.000000,1014.000000) scale(0.100000,-0.100000)"
fill=" rgb(148 163 184)" stroke="#fff" >
<path d="M2421 8978 c-17 -6 -18 -79 -26 -1495 -14 -2512 -13 -2571 34 -2833
39 -215 126 -537 181 -665 4 -11 27 -69 51 -130 80 -204 188 -410 319 -605
186 -277 470 -551 755 -729 103 -64 395 -211 420 -211 4 0 21 -7 38 -14 82
-38 330 -113 452 -138 28 -5 70 -14 95 -19 137 -28 243 -31 330 -9 127 32 208
53 230 60 14 4 59 18 100 30 80 23 108 33 295 105 827 320 1399 876 1717 1670
85 212 147 426 187 650 42 230 41 212 56 1330 3 204 8 498 11 655 5 295 18
1108 30 1898 l7 452 -29 2 c-96 5 -5238 2 -5253 -4z m4737 -319 c25 -47 8 -92
-101 -272 -122 -200 -142 -227 -167 -227 -28 0 -60 52 -60 97 0 31 21 73 115
228 64 105 125 198 137 208 18 15 24 16 42 4 12 -8 27 -25 34 -38z m-4062
-151 c136 -221 148 -252 119 -306 -23 -43 -59 -54 -81 -25 -16 21 -138 218
-201 326 -49 83 -55 129 -22 171 43 55 57 43 185 -166z m1233 162 c13 -7 23
-35 36 -99 9 -50 15 -97 12 -104 -7 -19 -53 -27 -73 -13 -9 7 -24 50 -35 106
-18 89 -19 96 -2 107 20 15 38 16 62 3z m1470 -6 c6 -6 -18 -160 -29 -190 -8
-20 -17 -24 -50 -24 -40 0 -40 0 -40 38 1 64 27 165 47 179 16 12 59 10 72 -3z
m-2297 -16 c11 -13 57 -79 101 -148 83 -129 97 -169 68 -204 -30 -36 -49 -19
-148 129 -102 154 -113 186 -78 225 23 25 31 25 57 -2z m565 -20 c84 -180 87
-196 40 -212 -37 -13 -57 8 -97 104 -53 126 -53 150 4 150 30 0 36 -5 53 -42z
m2014 26 c15 -18 7 -44 -46 -160 -35 -76 -58 -94 -95 -74 -11 6 -20 19 -20 29
0 17 53 151 80 201 13 24 62 27 81 4z m531 -1 c40 -36 24 -79 -104 -271 -56
-84 -73 -103 -91 -100 -28 4 -52 47 -44 79 8 29 136 231 176 277 32 37 38 38
63 15z m-3337 -70 c17 -27 57 -93 90 -147 65 -109 74 -151 39 -187 -11 -11
-27 -17 -35 -14 -12 5 -147 215 -189 294 -17 34 -15 89 6 112 15 17 20 18 38
5 12 -7 35 -36 51 -63z m574 -50 c73 -116 85 -149 61 -178 -17 -20 -33 -19
-55 5 -27 30 -145 223 -145 238 0 26 21 52 43 52 18 0 38 -25 96 -117z m2495
85 c8 -23 2 -39 -49 -120 -106 -170 -119 -181 -151 -133 -20 30 -15 45 46 140
21 33 50 79 64 103 23 36 32 43 54 40 18 -2 29 -11 36 -30z m530 16 c34 -34
20 -79 -70 -227 -47 -78 -95 -151 -105 -162 -20 -20 -20 -20 -45 8 -43 50 -38
63 113 310 56 90 75 103 107 71z m-2256 -13 c7 -4 22 -43 33 -87 20 -75 20
-79 2 -91 -27 -20 -66 -12 -80 17 -6 14 -17 53 -24 88 -11 54 -11 64 1 72 19
12 51 12 68 1z m891 0 c12 -8 11 -21 -4 -87 -23 -99 -52 -126 -100 -91 -17 13
-17 17 -1 87 9 40 21 79 27 87 13 15 57 17 78 4z m-569 -33 c5 -13 16 -59 25
-102 16 -76 16 -80 -1 -93 -22 -16 -45 -17 -67 0 -20 14 -54 173 -44 200 4 12
18 17 42 17 27 0 38 -5 45 -22z m259 13 c23 -15 -15 -200 -44 -213 -25 -11
-75 5 -75 24 0 25 31 161 41 179 10 20 54 25 78 10z m-2437 -43 c26 -31 194
-302 220 -357 23 -49 20 -101 -8 -132 -40 -45 -58 -27 -184 181 -103 170 -120
203 -120 235 0 31 24 81 42 88 23 9 29 7 50 -15z m4589 12 c18 0 40 -70 34
-104 -7 -29 -199 -359 -233 -398 -21 -25 -47 -22 -71 8 -41 53 -31 86 85 281
115 192 140 227 162 218 7 -3 18 -5 23 -5z m-4771 -287 c82 -55 253 -200 261
-220 10 -26 1 -51 -25 -72 -12 -10 -20 -10 -38 0 -33 17 -239 177 -260 201
-22 25 -23 57 -2 86 18 26 31 27 64 5z m4960 -3 c43 -43 22 -76 -123 -188
-145 -112 -152 -116 -176 -102 -26 13 -36 52 -22 79 11 20 223 195 266 219 27
16 32 15 55 -8z m-2833 -51 c52 -13 178 -68 205 -90 15 -13 15 -29 4 -184
l-12 -170 -36 -53 c-48 -68 -57 -125 -34 -212 14 -55 16 -125 16 -467 l0 -403
-37 0 c-171 -1 -413 -28 -753 -85 -201 -33 -354 -48 -414 -40 -53 7 -102 30
-111 52 -2 8 -5 332 -5 721 l-1 707 58 12 c174 38 261 61 438 118 123 40 340
94 414 105 78 10 199 6 268 -11z m1013 -9 c89 -19 149 -36 420 -118 91 -28
216 -60 278 -73 l112 -22 0 -717 c0 -810 8 -738 -83 -761 -63 -16 -171 -7
-407 31 -370 60 -627 89 -807 90 l-23 0 0 409 c0 338 3 416 15 451 8 23 15 63
15 89 0 51 -35 135 -68 164 -18 16 -21 36 -28 180 -5 89 -9 168 -9 176 0 16
89 67 163 93 117 41 259 44 422 8z m-631 -153 c17 -49 21 -86 21 -193 0 -86 4
-135 11 -140 25 -15 59 -110 59 -163 0 -120 -89 -211 -184 -187 -73 18 -134
119 -123 201 7 45 48 138 67 150 6 4 10 57 10 130 0 135 23 238 61 276 19 19
22 20 39 4 10 -9 28 -44 39 -78z m-2425 -129 c149 -91 166 -105 166 -137 0
-30 -16 -51 -39 -51 -29 1 -266 147 -281 173 -19 33 -1 77 31 77 12 0 67 -28
123 -62z m4880 41 c29 -42 6 -68 -135 -152 -137 -83 -170 -91 -182 -46 -11 41
10 64 119 128 60 35 118 69 129 77 29 19 52 17 69 -7z m-4094 -48 c7 -13 10
-261 10 -735 l0 -716 21 -21 c21 -21 28 -21 143 -15 141 8 268 25 456 61 258
49 355 64 450 70 113 7 154 -2 158 -34 3 -22 1 -23 -35 -17 -127 21 -155 19
-309 -23 -321 -87 -466 -111 -692 -111 -139 0 -160 -3 -182 -20 -24 -18 -24
-19 -5 -27 11 -4 112 -8 225 -7 228 1 273 8 540 84 170 48 311 68 353 51 41
-16 28 -35 -29 -42 -27 -4 -69 -14 -93 -23 -111 -42 -393 -99 -546 -111 -44
-4 -87 -8 -95 -10 -8 -2 -118 -9 -244 -15 -126 -6 -239 -16 -250 -22 -12 -6
-60 -33 -109 -62 l-87 -51 172 -5 c95 -3 346 -6 558 -8 397 -2 718 -10 758
-18 28 -6 29 -39 2 -54 -14 -8 -253 -9 -808 -5 -433 3 -797 8 -808 10 -12 3
-25 13 -28 22 -10 24 15 1513 25 1541 11 29 37 28 48 -1 5 -12 5 -290 0 -632
-11 -825 -11 -755 5 -755 14 0 15 12 31 1100 5 306 9 378 21 390 38 39 39 18
35 -704 -2 -427 0 -695 6 -699 5 -3 15 -2 23 3 13 8 15 110 18 707 1 384 5
713 8 731 4 26 9 32 31 32 l25 0 -3 -712 c-4 -629 -2 -713 11 -713 16 0 17 23
35 1065 5 330 9 418 20 429 12 12 16 12 31 0 16 -13 17 -61 10 -711 -4 -438
-3 -699 3 -702 5 -4 17 1 25 10 14 14 16 92 16 735 0 700 2 759 30 759 5 0 14
-9 20 -19z m3170 -734 c4 -630 7 -739 20 -747 8 -5 18 -6 23 -3 6 3 6 285 2
703 -8 694 -7 698 13 709 45 24 47 7 50 -428 2 -223 6 -554 10 -736 7 -308 8
-330 25 -333 18 -4 18 23 15 710 l-3 713 23 3 c12 2 24 -3 26 -10 3 -7 7 -335
11 -728 6 -691 9 -740 36 -740 5 0 10 314 11 707 3 651 4 708 20 711 9 2 19
-5 22 -15 5 -16 25 -1099 26 -1385 0 -84 2 -98 16 -98 16 0 16 42 10 543 -9
763 -9 844 -2 856 9 15 31 14 44 -1 7 -9 15 -285 23 -781 10 -657 10 -770 -2
-782 -11 -10 -171 -14 -820 -20 -738 -6 -808 -5 -823 10 -48 48 -21 52 374 59
201 3 534 9 740 12 206 3 376 7 378 8 3 3 -134 84 -184 110 -23 11 -87 18
-242 26 -232 11 -438 31 -577 55 -116 20 -305 70 -352 92 -20 9 -54 16 -75 16
-31 -2 -38 2 -38 17 0 46 121 37 356 -25 321 -86 346 -90 576 -90 113 0 210 3
214 7 4 5 -1 17 -10 27 -16 18 -32 20 -179 20 -220 0 -491 44 -722 119 -85 28
-188 34 -277 18 -45 -8 -48 -7 -48 13 0 34 41 44 160 36 58 -3 166 -18 240
-32 347 -64 476 -84 611 -95 158 -12 193 -8 209 22 8 14 11 243 10 739 0 751
-1 733 40 728 13 -2 16 -94 20 -740z m-3926 413 c63 -34 120 -68 127 -76 15
-19 -3 -64 -27 -64 -27 0 -254 121 -265 141 -15 29 -2 59 27 59 13 0 75 -27
138 -60z m4837 39 c16 -31 -11 -54 -145 -124 -94 -49 -119 -58 -133 -49 -25
15 -28 47 -6 66 31 28 227 128 250 128 13 0 27 -9 34 -21z m-4827 -305 c72
-25 136 -50 144 -56 17 -15 11 -58 -11 -72 -13 -9 -42 -3 -130 27 -176 60
-197 71 -197 105 0 15 5 33 12 40 14 14 11 15 182 -44z m4843 30 c13 -35 -7
-63 -60 -82 -188 -69 -248 -86 -265 -76 -22 14 -27 57 -9 73 25 20 290 108
310 103 10 -3 21 -11 24 -18z m-2559 -100 c25 -39 23 -64 -5 -64 -20 0 -63 57
-63 83 0 32 43 20 68 -19z m132 19 c-1 -29 -55 -87 -74 -80 -22 9 -20 32 6 67
25 34 68 42 68 13z m-2474 -168 c71 -25 139 -50 152 -57 43 -22 37 -88 -9 -88
-29 0 -291 97 -300 112 -18 27 -4 78 22 78 4 0 65 -20 135 -45z m4928 13 c15
-43 -8 -58 -167 -113 -124 -42 -147 -48 -161 -36 -23 20 -20 58 7 76 31 20
278 105 297 102 8 -1 19 -14 24 -29z m-2595 -75 c35 -42 38 -58 15 -67 -29
-11 -39 -6 -73 36 -33 39 -34 41 -16 54 29 21 41 17 74 -23z m135 31 c23 -9
20 -30 -11 -70 -29 -38 -65 -43 -71 -10 -3 14 51 86 64 86 1 0 9 -3 18 -6z
m-138 -211 c37 -41 42 -58 18 -67 -26 -10 -31 -8 -68 32 -48 50 -46 64 8 71 4
0 24 -16 42 -36z m149 23 c17 -12 17 -15 -15 -55 -35 -43 -38 -45 -64 -35 -23
9 -20 32 12 69 30 38 40 41 67 21z m-2290 -50 c19 -29 11 -51 -23 -65 -51 -20
-263 -81 -282 -81 -24 0 -53 41 -44 63 4 11 49 30 122 52 65 20 128 40 142 45
44 15 69 11 85 -14z m4575 -17 c74 -22 140 -45 147 -51 29 -24 8 -78 -29 -78
-22 0 -255 68 -283 83 -38 19 -45 46 -19 71 22 22 33 21 184 -25z m-4576 -195
c20 -19 21 -48 2 -63 -19 -16 -262 -91 -295 -91 -15 0 -32 5 -39 12 -15 15
-16 55 -1 63 15 10 281 93 301 94 9 0 24 -6 32 -15z m4487 -3 c35 -11 103 -31
151 -45 92 -28 110 -45 88 -86 -15 -27 -43 -26 -166 10 -119 35 -151 48 -176
68 -23 19 -23 27 2 52 24 24 23 24 101 1z m-2212 -28 c5 -10 6 -36 2 -58 -6
-36 -9 -40 -39 -43 -26 -3 -34 1 -41 20 -5 13 -7 28 -6 33 2 6 6 22 9 38 5 22
12 27 36 27 18 0 33 -7 39 -17z m-161 -5 c17 -23 25 -78 12 -93 -16 -19 -54
-19 -69 -2 -18 23 -25 75 -11 92 15 18 54 20 68 3z m284 -65 c27 -24 22 -49
-17 -79 -33 -25 -36 -26 -60 -10 -32 21 -32 43 2 78 31 32 49 35 75 11z m-421
-36 c40 -27 47 -51 23 -78 -22 -25 -30 -24 -71 7 -37 28 -41 48 -16 76 21 23
23 23 64 -5z m2575 -124 c155 -80 166 -87 178 -106 8 -12 8 -22 0 -34 -22 -36
-64 -26 -199 45 -116 61 -130 72 -133 97 -3 26 17 55 38 55 4 0 56 -25 116
-57z m-4562 25 c8 -13 8 -23 0 -35 -13 -23 -260 -153 -289 -153 -43 0 -60 44
-27 72 9 9 69 43 132 77 120 64 162 73 184 39z m2474 0 c18 -18 15 -56 -5 -67
-24 -12 -75 -17 -91 -8 -6 5 -12 21 -12 37 0 22 6 31 28 38 38 14 66 14 80 0z
m-312 -85 c27 -20 58 5 62 51 4 41 8 43 41 20 68 -48 57 -170 -20 -210 -99
-50 -214 45 -179 150 6 19 23 45 38 57 l27 21 6 -38 c4 -20 15 -43 25 -51z
m-222 47 c18 -6 26 -17 26 -33 0 -34 -19 -47 -67 -47 -36 0 -45 4 -52 23 -20
54 26 83 93 57z m-149 -10 c3 -6 3 -19 0 -30 -6 -18 -15 -20 -85 -20 -56 0
-94 -6 -131 -20 -42 -17 -54 -18 -60 -8 -13 20 -11 26 14 39 73 40 246 65 262
39z m965 -14 c73 -22 101 -38 98 -55 -5 -23 -41 -25 -80 -5 -22 11 -59 18
-111 18 -57 1 -81 6 -87 16 -15 23 -12 38 8 44 26 7 121 -3 172 -18z m-262
-97 c5 -40 -18 -57 -70 -50 -35 5 -44 10 -46 29 -7 45 4 53 60 50 49 -3 53 -5
56 -29z m-744 -20 c29 -23 34 -50 10 -70 -13 -10 -83 -11 -397 -1 -210 7 -487
13 -615 13 -200 0 -234 2 -239 16 -3 8 0 19 8 24 8 4 100 6 204 4 105 -3 327
-7 495 -10 l305 -6 65 25 c81 31 129 33 164 5z m226 1 c17 -33 3 -58 -40 -71
-48 -14 -67 -8 -76 26 -8 32 3 45 48 55 51 12 57 11 68 -10z m780 -13 c54 -22
61 -22 580 -22 460 0 525 -2 525 -15 0 -13 -55 -16 -405 -21 -223 -4 -501 -12
-618 -18 -148 -8 -219 -8 -232 -1 -25 13 -26 52 -2 72 38 34 78 35 152 5z
m-2777 -78 c22 -35 -1 -63 -125 -149 -69 -47 -134 -84 -147 -85 -17 0 -30 9
-40 27 -14 25 -14 28 4 48 18 20 101 81 210 154 42 29 82 31 98 5z m2439 -9
c28 -28 29 -32 15 -53 -19 -29 -40 -32 -72 -11 -36 24 -47 54 -27 77 22 25 50
21 84 -13z m2197 -56 c68 -48 126 -96 131 -108 10 -26 -9 -60 -37 -64 -11 -2
-73 35 -151 89 -114 79 -132 95 -132 118 0 33 17 51 46 51 11 0 76 -39 143
-86z m-2551 30 c4 -30 -51 -78 -82 -70 -48 12 -42 66 13 99 22 13 29 14 46 3
11 -7 21 -22 23 -32z m102 -29 c9 -11 10 -27 4 -58 -8 -37 -13 -42 -39 -45
-37 -5 -56 19 -48 62 3 17 10 37 16 44 13 17 52 15 67 -3z m136 -30 c15 -54 3
-77 -39 -73 -29 3 -33 7 -41 45 -11 51 4 76 43 71 20 -2 28 -11 37 -43z m204
-90 c0 -30 5 -45 16 -49 26 -10 31 -7 38 24 5 30 30 49 44 36 3 -4 9 -28 12
-54 6 -57 33 -67 38 -14 3 26 7 32 28 32 22 0 24 -4 24 -50 0 -58 19 -68 37
-19 10 27 14 29 32 19 16 -8 21 -21 21 -50 0 -50 17 -61 31 -20 17 46 43 36
49 -19 5 -48 26 -67 32 -29 2 15 10 23 23 23 16 0 21 -8 23 -40 4 -53 17 -64
30 -26 19 55 52 31 52 -38 l0 -45 21 23 c27 29 49 13 49 -38 1 -33 2 -35 15
-17 24 32 45 13 45 -40 0 -50 -20 -84 -49 -84 -9 0 -52 30 -96 67 -150 125
-302 211 -485 274 -52 18 -101 37 -107 42 -19 14 -15 45 7 57 13 7 20 21 20
38 0 32 16 53 36 45 9 -3 14 -21 14 -48z m-610 4 c0 -17 9 -42 20 -56 30 -39
13 -58 -72 -78 -101 -25 -230 -71 -313 -112 -82 -41 -226 -133 -273 -174 -18
-16 -39 -29 -46 -29 -21 0 -46 35 -51 70 -8 63 32 110 50 58 7 -20 9 -18 12
14 5 47 36 69 53 38 17 -31 30 -14 30 36 0 41 2 45 22 42 16 -2 24 -12 28 -33
6 -29 6 -29 18 -8 7 12 10 28 7 35 -3 7 1 22 8 32 18 24 47 15 47 -15 0 -39
25 -13 28 29 3 37 6 42 28 42 19 0 24 -5 24 -26 0 -19 5 -25 18 -22 12 2 19
16 22 43 4 32 9 40 25 40 14 0 21 -8 23 -27 6 -53 40 -28 44 32 2 37 6 45 23
45 15 0 21 -8 25 -33 3 -18 8 -33 13 -32 4 0 12 0 17 0 6 0 10 17 10 39 0 38
20 68 38 57 5 -3 12 -19 16 -37 5 -25 10 -30 28 -27 17 2 24 11 26 33 4 46 10
55 32 55 16 0 20 -7 20 -31z m-1930 -127 c-1 -18 -220 -291 -246 -305 -8 -5
-22 -6 -30 -3 -25 10 -15 52 24 97 21 24 73 88 116 141 42 53 83 99 89 101 19
7 47 -12 47 -31z m4647 -113 c67 -79 122 -151 123 -160 0 -23 -26 -42 -44 -32
-25 14 -246 287 -246 303 0 20 21 41 35 37 5 -2 65 -68 132 -148z m-4364 109
c11 -16 -21 -67 -204 -328 -33 -47 -98 -140 -144 -206 -82 -117 -111 -144
-134 -121 -23 23 -8 52 101 205 61 86 137 193 168 237 31 44 71 103 90 130 66
100 99 122 123 83z m4042 -95 c44 -62 112 -157 150 -213 39 -55 103 -146 143
-202 77 -109 86 -141 41 -146 -23 -3 -39 16 -154 180 -71 101 -166 235 -211
298 -123 174 -118 165 -98 184 9 10 24 16 32 14 9 -2 53 -54 97 -115z m-3769
82 c19 -29 31 -6 -236 -435 -56 -91 -121 -194 -143 -230 -22 -36 -60 -99 -85
-140 -75 -125 -105 -145 -138 -95 -19 30 -22 23 106 230 117 187 147 236 290
469 63 103 123 196 133 207 24 26 53 24 73 -6z m3446 -3 c12 -16 66 -99 118
-186 52 -86 131 -214 175 -284 203 -320 247 -399 236 -420 -6 -12 -21 -24 -33
-28 -35 -11 -38 -6 -293 411 -54 88 -106 171 -115 185 -44 63 -180 294 -180
306 0 19 29 44 50 44 10 0 29 -13 42 -28z m-2922 -2 c29 -29 25 -59 -24 -152
-111 -212 -166 -318 -268 -518 -61 -118 -117 -225 -124 -237 -8 -12 -57 -106
-110 -210 -104 -202 -125 -233 -160 -233 -26 0 -60 27 -68 56 -6 21 65 167
224 464 37 69 91 172 120 230 29 58 67 132 85 165 18 33 74 141 125 240 50 99
101 188 112 198 27 23 63 22 88 -3z m2404 4 c19 -19 47 -70 223 -409 78 -148
164 -315 193 -370 29 -55 99 -191 157 -302 101 -199 103 -203 89 -232 -25 -47
-70 -55 -103 -18 -11 12 -78 132 -148 267 -70 135 -171 328 -225 430 -313 595
-315 601 -268 634 29 20 62 20 82 0z m-2663 -4 c28 -15 24 -56 -12 -120 -17
-30 -43 -77 -59 -105 -57 -102 -193 -342 -225 -395 -18 -30 -44 -75 -57 -100
-181 -327 -213 -378 -245 -386 -28 -8 -63 19 -63 49 0 11 22 58 49 106 27 47
97 172 156 276 59 105 131 231 160 280 29 50 67 117 85 150 69 125 124 221
138 238 17 19 44 22 73 7z m3126 -385 c122 -214 256 -450 299 -524 66 -115 75
-138 68 -160 -5 -14 -22 -30 -37 -35 -40 -14 -54 4 -209 279 -75 132 -201 356
-282 497 -144 255 -162 298 -134 326 7 7 26 12 43 10 28 -3 42 -25 252 -393z
m-1752 290 c0 -23 -34 -33 -45 -14 -13 20 1 40 24 37 13 -2 21 -10 21 -23z
m-137 -7 c-2 -15 -10 -23 -23 -23 -13 0 -21 8 -23 23 -3 18 1 22 23 22 22 0
26 -4 23 -22z m280 5 c-4 -22 -58 -31 -58 -10 0 20 10 27 37 27 18 0 24 -5 21
-17z m-390 -20 c-4 -20 -35 -30 -50 -15 -15 15 0 32 28 32 19 0 25 -5 22 -17z
m527 -8 c0 -21 -31 -33 -46 -18 -5 5 -7 17 -3 27 9 24 49 17 49 -9z m-40 -45
c342 -77 573 -242 682 -487 47 -108 54 -166 60 -518 l6 -331 26 1 c24 0 26 -3
26 -40 0 -38 -1 -40 -31 -39 l-31 2 -7 -82 c-28 -344 -136 -685 -286 -906 -92
-136 -244 -271 -375 -336 -202 -99 -407 -97 -624 7 -115 55 -190 110 -296 220
-166 172 -241 314 -315 593 -37 143 -90 460 -90 543 0 11 -6 14 -21 10 -14 -4
-23 1 -31 18 -15 33 -3 75 22 75 19 0 20 7 20 235 0 351 17 473 86 605 116
222 358 381 663 435 136 23 139 24 286 19 91 -2 172 -11 230 -24z m185 5 c0
-18 -5 -25 -19 -25 -11 0 -23 5 -26 10 -11 18 3 40 25 40 15 0 20 -7 20 -25z
m-1523 -1001 c9 -25 -6 -64 -41 -101 -33 -37 -34 -37 -60 -20 -14 10 -26 25
-26 34 0 23 47 100 67 112 20 11 51 -2 60 -25z m2231 -40 c30 -21 65 -90 57
-115 -16 -49 -66 -43 -99 11 -34 58 -37 79 -16 100 24 24 29 24 58 4z m-2210
-87 c13 -16 19 -78 8 -95 -4 -7 -16 -12 -26 -12 -37 0 -54 74 -24 104 19 19
28 20 42 3z m2163 -57 c14 -8 19 -21 19 -49 0 -42 -18 -65 -47 -59 -31 6 -27
118 4 118 2 0 13 -5 24 -10z m-2127 -256 c9 -35 -2 -64 -24 -64 -25 0 -43 63
-23 83 15 16 41 6 47 -19z m2101 -74 c0 -31 -3 -35 -25 -35 -19 0 -26 6 -28
23 -5 36 5 54 30 50 19 -2 23 -9 23 -38z m-1802 -953 c28 -38 196 -184 272
-239 73 -52 203 -115 287 -138 86 -24 246 -27 323 -6 180 49 387 190 519 355
51 63 74 73 116 51 26 -14 44 -79 36 -124 -5 -28 -19 -46 -59 -77 -260 -206
-556 -329 -790 -329 -266 0 -543 130 -755 354 -51 53 -52 56 -52 114 0 32 3
62 7 65 3 4 21 7 38 7 25 0 39 -8 58 -33z m28 -312 c164 -114 289 -177 435
-217 113 -31 330 -31 464 -1 144 33 302 104 447 200 55 37 61 39 94 28 76 -26
39 -65 -150 -159 -205 -103 -387 -153 -581 -163 -243 -11 -451 49 -665 193
-108 72 -145 108 -145 139 0 37 28 32 101 -20z m4 -156 c188 -119 337 -178
515 -205 266 -38 533 24 814 190 76 45 78 46 112 31 24 -10 34 -20 32 -31 -6
-34 -240 -157 -403 -212 -261 -88 -538 -94 -765 -17 -184 62 -420 215 -420
272 0 35 26 29 115 -28z m125 -228 c104 -53 249 -104 350 -122 36 -6 124 -11
195 -11 208 1 358 40 596 154 138 66 148 69 175 57 39 -20 40 -34 2 -62 -56
-42 -251 -135 -360 -172 -177 -59 -235 -68 -428 -69 -194 -1 -253 9 -413 71
-153 59 -357 195 -357 238 0 36 20 36 85 -1 33 -19 103 -56 155 -83z"/>
<path d="M4214 7935 c-4 -10 -1 -21 7 -26 20 -12 127 -11 135 2 11 19 -10 29
-74 35 -53 6 -62 4 -68 -11z"/>
<path d="M4410 7921 c0 -14 10 -20 46 -25 85 -11 144 -8 151 10 10 26 -16 34
-109 34 -79 0 -88 -2 -88 -19z"/>
<path d="M4080 7923 c-8 -3 -43 -19 -77 -34 -34 -16 -74 -31 -88 -35 -27 -7
-34 -31 -10 -40 15 -6 59 7 160 50 42 17 61 31 63 45 3 21 -15 26 -48 14z"/>
<path d="M3747 7824 c-19 -20 -5 -34 34 -34 33 0 40 3 37 18 -3 17 -57 30 -71
16z"/>
<path d="M4270 7815 c-25 -30 0 -35 166 -35 152 0 165 1 162 17 -4 24 -55 32
-199 32 -90 1 -119 -2 -129 -14z"/>
<path d="M4088 7769 c-28 -16 -22 -39 10 -39 47 0 72 11 72 31 0 15 -7 19 -32
19 -18 0 -41 -5 -50 -11z"/>
<path d="M3925 7741 c-41 -8 -47 -41 -8 -41 48 0 73 11 73 31 0 20 -11 22 -65
10z"/>
<path d="M3725 7722 c-3 -3 -5 -14 -5 -24 0 -15 8 -18 51 -18 43 0 50 3 47 18
-2 12 -16 19 -46 23 -23 3 -44 3 -47 1z"/>
<path d="M4413 7693 c-35 -3 -43 -8 -43 -24 0 -17 7 -19 65 -19 51 0 67 4 72
16 6 17 -13 35 -37 32 -8 -1 -34 -3 -57 -5z"/>
<path d="M4542 7683 c2 -12 16 -20 38 -23 45 -8 60 -2 60 21 0 16 -8 19 -51
19 -43 0 -50 -3 -47 -17z"/>
<path d="M4243 7683 c-27 -5 -47 -28 -38 -43 9 -14 75 -4 94 14 27 27 2 40
-56 29z"/>
<path d="M4050 7653 c-88 -13 -90 -14 -90 -34 0 -20 4 -21 68 -14 67 6 100 23
88 44 -7 11 -19 12 -66 4z"/>
<path d="M3773 7613 c-45 -3 -53 -7 -53 -24 0 -17 7 -19 58 -19 75 0 104 8
100 29 -3 17 -23 20 -105 14z"/>
<path d="M4370 7537 c0 -23 1 -23 127 -23 91 1 127 4 130 13 8 22 -45 33 -153
33 -102 0 -104 0 -104 -23z"/>
<path d="M4125 7527 c-34 -26 -8 -38 71 -34 80 4 90 8 81 32 -8 20 -125 21
-152 2z"/>
<path d="M3940 7490 c-46 -12 -66 -22 -68 -35 -4 -16 2 -17 45 -13 67 7 124
33 117 52 -7 19 -9 19 -94 -4z"/>
<path d="M3730 7451 c0 -23 13 -29 52 -23 44 7 33 36 -15 40 -31 3 -37 0 -37
-17z"/>
<path d="M4531 7421 c-28 -18 -4 -41 44 -41 38 0 45 3 45 20 0 14 -7 20 -24
20 -13 0 -30 2 -38 5 -7 3 -19 1 -27 -4z"/>
<path d="M4237 7412 c-11 -2 -17 -11 -15 -20 5 -25 105 -30 115 -7 11 30 -32
41 -100 27z"/>
<path d="M4402 7403 c4 -24 93 -27 93 -3 0 11 -13 16 -48 18 -42 3 -48 1 -45
-15z"/>
<path d="M4083 7379 c-37 -11 -48 -49 -14 -49 37 0 82 22 79 39 -4 19 -23 22
-65 10z"/>
<path d="M3905 7351 c-48 -12 -71 -23 -73 -34 -3 -14 5 -17 40 -17 62 0 140
28 136 49 -4 22 -21 22 -103 2z"/>
<path d="M3730 7321 c0 -23 19 -32 42 -19 24 12 11 38 -18 38 -17 0 -24 -6
-24 -19z"/>
<path d="M4502 7293 c4 -24 93 -27 93 -3 0 11 -13 16 -48 18 -42 3 -48 1 -45
-15z"/>
<path d="M4320 7280 c0 -11 6 -20 13 -21 6 0 22 -2 34 -5 34 -6 74 12 67 31
-5 11 -21 15 -60 15 -47 0 -54 -2 -54 -20z"/>
<path d="M4183 7270 c-36 -15 -29 -40 11 -40 35 0 71 24 61 41 -8 11 -43 11
-72 -1z"/>
<path d="M3990 7231 c-50 -5 -66 -10 -68 -23 -4 -23 47 -32 113 -21 40 7 50
12 50 28 0 23 -7 24 -95 16z"/>
<path d="M3727 7223 c-19 -19 -5 -33 33 -33 33 0 40 3 40 20 0 16 -7 20 -33
20 -19 0 -37 -3 -40 -7z"/>
<path d="M4397 7203 c-4 -3 -7 -15 -7 -26 0 -17 5 -18 37 -12 46 8 53 12 53
31 0 10 -12 14 -38 14 -21 0 -42 -3 -45 -7z"/>
<path d="M4515 7200 c-12 -20 7 -30 61 -30 47 0 54 2 54 20 0 18 -7 20 -54 20
-30 0 -58 -4 -61 -10z"/>
<path d="M4228 7179 c-30 -11 -32 -16 -19 -37 12 -20 93 5 89 27 -4 19 -33 23
-70 10z"/>
<path d="M3955 7141 c-10 -18 26 -41 64 -41 67 0 101 11 101 31 0 17 -8 19
-79 19 -44 0 -82 -4 -86 -9z"/>
<path d="M3727 7116 c-9 -23 15 -36 64 -36 58 0 99 14 99 35 0 21 -155 22
-163 1z"/>
<path d="M4442 7078 c2 -19 10 -23 44 -25 31 -2 44 2 48 13 10 26 -2 34 -50
34 -41 0 -45 -2 -42 -22z"/>
<path d="M4573 7093 c-18 -7 -16 -30 4 -37 19 -8 48 17 39 33 -7 11 -22 13
-43 4z"/>
<path d="M4267 7073 c-14 -14 17 -33 54 -33 32 0 39 3 39 20 0 17 -7 20 -43
20 -24 0 -47 -3 -50 -7z"/>
<path d="M4092 7059 c-13 -5 -22 -15 -20 -21 6 -18 69 -21 92 -5 40 29 -16 49
-72 26z"/>
<path d="M3715 7030 c-4 -6 -1 -17 5 -25 9 -11 35 -15 94 -15 116 0 156 8 156
31 0 18 -10 19 -124 19 -76 0 -127 -4 -131 -10z"/>
<path d="M4358 6993 c-14 -4 -16 -8 -8 -24 12 -22 84 -27 96 -7 15 25 -39 44
-88 31z"/>
<path d="M4517 6993 c-10 -3 -17 -12 -15 -21 3 -13 15 -17 58 -17 48 0 55 2
55 20 0 16 -7 20 -40 22 -22 0 -48 -1 -58 -4z"/>
<path d="M4157 6964 c-3 -3 -3 -12 0 -20 3 -10 22 -14 59 -14 47 0 54 2 54 20
0 18 -7 20 -53 20 -30 0 -56 -3 -60 -6z"/>
<path d="M4003 6952 c-25 -2 -33 -8 -33 -23 0 -16 7 -19 56 -19 52 0 55 1 52
23 -3 23 -13 25 -75 19z"/>
<path d="M3724 6915 c-8 -20 4 -35 27 -35 23 0 26 35 3 44 -22 8 -24 8 -30 -9z"/>
<path d="M3803 6914 c-7 -19 10 -31 40 -28 12 1 34 3 50 3 20 1 27 6 27 21 0
18 -7 20 -55 20 -42 0 -57 -4 -62 -16z"/>
<path d="M4513 6883 c-7 -2 -13 -13 -13 -24 0 -16 7 -19 55 -19 52 0 55 1 55
25 0 23 -4 25 -42 24 -24 0 -49 -3 -55 -6z"/>
<path d="M4329 6864 c-17 -21 -1 -34 44 -34 50 0 72 12 64 34 -8 20 -91 20
-108 0z"/>
<path d="M4144 6855 c-10 -26 10 -36 62 -33 41 3 49 6 49 23 0 17 -8 20 -53
23 -41 2 -54 0 -58 -13z"/>
<path d="M3963 6834 c-9 -24 11 -36 58 -32 36 2 44 7 44 23 0 17 -7 20 -48 22
-35 1 -50 -3 -54 -13z"/>
<path d="M3740 6790 c0 -19 5 -21 57 -18 46 2 59 7 61 21 3 15 -5 17 -57 17
-55 0 -61 -2 -61 -20z"/>
<path d="M4465 6760 c-13 -22 12 -31 76 -28 49 2 64 7 64 18 0 12 -15 16 -67
18 -41 2 -69 -1 -73 -8z"/>
<path d="M4263 6744 c-9 -24 17 -36 66 -29 51 6 56 9 48 30 -9 22 -105 21
-114 -1z"/>
<path d="M4057 6733 c-4 -3 -7 -15 -7 -25 0 -15 8 -18 54 -18 57 0 70 7 60 34
-4 12 -19 16 -53 16 -26 0 -51 -3 -54 -7z"/>
<path d="M3790 6691 c0 -23 27 -29 100 -22 42 5 56 10 58 24 3 15 -6 17 -77
17 -73 0 -81 -2 -81 -19z"/>
<path d="M3693 6685 c-13 -10 -15 -17 -7 -25 16 -16 48 -9 52 11 4 23 -22 31
-45 14z"/>
<path d="M5444 7945 c-11 -28 7 -35 102 -35 86 0 94 2 94 19 0 26 -19 31 -111
31 -60 0 -81 -4 -85 -15z"/>
<path d="M5694 7939 c-12 -21 14 -30 77 -27 51 2 64 6 67 21 3 15 -5 17 -67
17 -39 0 -73 -5 -77 -11z"/>
<path d="M5926 7923 c-21 -21 2 -41 88 -80 104 -48 136 -54 136 -23 0 11 -4
20 -10 20 -5 0 -44 16 -85 35 -99 47 -122 55 -129 48z"/>
<path d="M5446 7832 c-14 -23 20 -30 172 -36 156 -7 162 -7 162 12 0 14 -9 21
-31 26 -46 9 -297 7 -303 -2z"/>
<path d="M6223 7795 c-7 -21 -3 -24 38 -27 29 -3 34 0 37 20 3 19 -1 22 -33
22 -23 0 -38 -5 -42 -15z"/>
<path d="M5870 7768 c0 -21 20 -36 50 -38 41 -4 50 -1 50 14 0 19 -9 24 -58
32 -34 5 -42 4 -42 -8z"/>
<path d="M6050 7720 c0 -14 11 -22 40 -30 22 -6 45 -8 50 -5 21 13 8 35 -27
44 -53 15 -63 14 -63 -9z"/>
<path d="M5418 7722 c-10 -2 -18 -12 -18 -22 0 -10 8 -21 18 -24 25 -8 77 8
77 24 0 15 -48 28 -77 22z"/>
<path d="M5530 7691 c0 -14 10 -20 46 -25 78 -10 94 -8 94 13 0 22 -26 31 -92
31 -40 0 -48 -3 -48 -19z"/>
<path d="M6215 7690 c-12 -20 7 -30 56 -30 42 0 49 3 49 20 0 17 -7 20 -49 20
-28 0 -53 -4 -56 -10z"/>
<path d="M5730 7671 c0 -13 11 -21 42 -29 45 -12 58 -9 58 13 0 19 -32 35 -69
35 -24 0 -31 -4 -31 -19z"/>
<path d="M5920 7631 c0 -15 12 -21 63 -30 87 -15 99 -14 95 6 -4 20 -64 41
-120 42 -31 1 -38 -3 -38 -18z"/>
<path d="M6150 7585 c0 -21 41 -35 106 -35 46 0 54 3 54 19 0 15 -10 19 -52
25 -85 10 -108 8 -108 -9z"/>
<path d="M5418 7575 c-5 -5 -8 -17 -8 -27 0 -16 10 -18 124 -18 69 0 127 4
130 8 2 4 1 14 -3 21 -9 14 -231 29 -243 16z"/>
<path d="M5750 7520 c0 -16 7 -20 33 -20 17 0 56 -3 85 -6 44 -6 52 -4 52 10
0 23 -40 36 -111 36 -52 0 -59 -2 -59 -20z"/>
<path d="M5990 7486 c0 -19 17 -31 74 -50 68 -22 88 -21 84 5 -2 16 -17 26
-63 40 -72 22 -95 24 -95 5z"/>
<path d="M5413 7434 c-26 -18 -5 -34 43 -34 37 0 44 3 44 20 0 11 -3 21 -7 21
-33 6 -67 3 -80 -7z"/>
<path d="M6220 7431 c0 -23 30 -35 61 -26 34 11 19 40 -24 43 -31 3 -37 0 -37
-17z"/>
<path d="M5537 7433 c-4 -3 -7 -15 -7 -25 0 -14 8 -18 38 -18 41 0 63 15 55
36 -5 14 -74 20 -86 7z"/>
<path d="M5689 7414 c-18 -22 -2 -32 56 -36 45 -3 50 -1 53 20 3 18 -1 22 -25
23 -15 0 -38 2 -49 5 -12 2 -28 -3 -35 -12z"/>
<path d="M5878 7373 c-17 -21 14 -43 59 -43 25 0 33 4 33 18 0 26 -75 46 -92
25z"/>
<path d="M6015 7350 c-11 -17 13 -36 68 -54 67 -22 107 -21 107 3 0 14 -14 22
-62 35 -35 9 -73 18 -84 22 -12 3 -25 1 -29 -6z"/>
<path d="M5427 7323 c-4 -3 -7 -13 -7 -20 0 -23 94 -13 98 10 3 14 -4 17 -41
17 -24 0 -47 -3 -50 -7z"/>
<path d="M6235 7310 c-10 -17 20 -44 40 -36 9 3 15 14 13 23 -4 21 -43 30 -53
13z"/>
<path d="M5584 7295 c-9 -22 -7 -23 56 -27 49 -3 55 -1 55 17 0 17 -8 20 -53
23 -40 2 -54 -1 -58 -13z"/>
<path d="M5763 7274 c-8 -22 8 -34 51 -37 52 -3 57 18 10 38 -46 19 -53 19
-61 -1z"/>
<path d="M5382 7213 c3 -14 15 -19 61 -21 52 -3 58 -1 55 15 -3 14 -15 19 -61
21 -52 3 -58 1 -55 -15z"/>
<path d="M5537 7223 c-14 -13 -6 -24 27 -38 37 -16 66 -11 66 10 0 20 -78 44
-93 28z"/>
<path d="M5930 7212 c0 -11 8 -23 18 -26 82 -23 142 -17 142 15 0 16 -7 19
-42 19 -24 0 -60 3 -80 6 -34 6 -38 4 -38 -14z"/>
<path d="M6213 7195 c-8 -22 10 -33 48 -27 42 6 35 36 -9 40 -23 2 -34 -2 -39
-13z"/>
<path d="M5713 7184 c-8 -22 6 -32 55 -40 35 -5 42 -4 42 10 0 10 -15 23 -35
32 -44 18 -54 18 -62 -2z"/>
<path d="M5887 7136 c-7 -18 14 -30 77 -41 50 -10 86 1 86 25 0 17 -7 20 -42
20 -24 0 -59 3 -79 6 -28 5 -37 2 -42 -10z"/>
<path d="M5390 7101 c0 -10 9 -21 19 -24 24 -6 31 0 31 25 0 13 -7 18 -25 18
-18 0 -25 -5 -25 -19z"/>
<path d="M6124 7105 c-11 -27 10 -37 82 -38 64 -2 69 -1 72 21 3 21 0 22 -56
22 -33 0 -67 3 -76 6 -10 4 -18 0 -22 -11z"/>
<path d="M5472 7093 c3 -14 13 -18 48 -18 35 0 45 4 48 18 3 14 -4 17 -48 17
-44 0 -51 -3 -48 -17z"/>
<path d="M5645 7080 c-12 -19 6 -30 50 -30 40 0 64 17 48 34 -10 10 -91 7 -98
-4z"/>
<path d="M5827 7056 c-7 -18 11 -30 61 -41 25 -5 33 -3 38 10 9 23 -4 33 -52
41 -32 5 -42 3 -47 -10z"/>
<path d="M6030 7016 c0 -25 42 -36 153 -39 99 -2 102 -1 105 21 3 20 0 22 -51
22 -30 0 -88 3 -130 6 -68 6 -77 5 -77 -10z"/>
<path d="M5384 7006 c-9 -24 -1 -28 56 -34 40 -4 51 -1 56 12 9 23 4 26 -54
33 -43 5 -53 3 -58 -11z"/>
<path d="M5563 6994 c-8 -21 15 -35 52 -32 23 2 31 9 33 26 3 20 -1 22 -38 22
-28 0 -43 -5 -47 -16z"/>
<path d="M5733 6974 c-9 -4 -10 -11 -3 -25 8 -15 22 -19 60 -19 81 0 80 39 -2
46 -23 2 -49 1 -55 -2z"/>
<path d="M5915 6940 c-11 -18 6 -28 63 -36 53 -7 54 -6 50 17 -3 21 -9 24 -55
27 -30 2 -54 -2 -58 -8z"/>
<path d="M6083 6913 c-18 -7 -16 -30 3 -37 32 -12 102 -6 108 9 3 9 0 17 -7
20 -25 7 -92 13 -104 8z"/>
<path d="M5380 6891 c0 -19 34 -31 91 -31 42 0 40 35 -2 44 -60 12 -89 8 -89
-13z"/>
<path d="M6233 6895 c-16 -13 -16 -16 -3 -25 20 -14 44 -8 48 11 4 23 -22 31
-45 14z"/>
<path d="M5555 6880 c-12 -19 11 -33 65 -38 50 -5 52 -4 48 19 -3 21 -9 24
-55 27 -30 2 -54 -2 -58 -8z"/>
<path d="M5740 6851 c0 -13 10 -20 31 -25 70 -14 104 -1 79 29 -8 10 -31 15
-61 15 -41 0 -49 -3 -49 -19z"/>
<path d="M5920 6820 c0 -11 6 -20 13 -21 6 0 31 -2 55 -5 33 -4 44 -1 49 11 8
24 -14 35 -69 35 -41 0 -48 -3 -48 -20z"/>
<path d="M5391 6781 c-6 -10 -7 -21 -4 -25 11 -11 131 -7 139 5 10 17 -7 26
-68 33 -50 5 -59 4 -67 -13z"/>
<path d="M6134 6787 c-10 -27 5 -37 57 -37 35 0 51 4 56 15 8 22 3 25 -55 32
-42 5 -53 3 -58 -10z"/>
<path d="M5610 6751 c0 -14 10 -20 43 -25 49 -7 77 0 77 19 0 17 -23 25 -76
25 -36 0 -44 -3 -44 -19z"/>
<path d="M5824 6725 c-10 -26 6 -35 62 -35 46 0 54 3 54 19 0 28 -106 44 -116
16z"/>
<path d="M6042 6684 c4 -21 35 -32 101 -33 34 -1 49 3 54 14 3 9 4 17 2 19 -2
2 -39 7 -82 11 -73 7 -79 6 -75 -11z"/>
<path d="M6247 6657 c-7 -20 1 -27 30 -27 18 0 24 5 21 18 -4 21 -43 28 -51 9z"/>
<path d="M4400 4877 c-50 -10 -70 -23 -70 -44 0 -12 13 -13 78 -8 94 9 168 -8
271 -60 39 -19 75 -35 81 -35 18 0 10 36 -12 57 -82 72 -238 113 -348 90z"/>
<path d="M5421 4869 c-66 -11 -185 -73 -202 -106 -23 -42 2 -45 71 -9 102 53
170 69 267 63 85 -5 98 -1 87 27 -9 25 -138 39 -223 25z"/>
<path d="M4343 4763 c-37 -15 3 -54 120 -118 68 -37 69 -38 160 -32 100 5 127
12 127 32 0 16 -55 58 -126 96 -52 27 -63 29 -163 28 -58 0 -112 -3 -118 -6z
m238 -63 c48 -26 -8 -62 -59 -38 -15 7 -28 21 -30 31 -3 14 4 17 33 17 20 0
45 -5 56 -10z"/>
<path d="M5371 4730 c-59 -27 -143 -90 -138 -104 6 -19 69 -35 145 -35 67 -1
81 3 140 35 120 65 157 102 116 118 -9 3 -61 6 -117 6 -80 0 -111 -5 -146 -20z
m119 -54 c0 -27 -31 -40 -87 -37 -27 1 -30 26 -5 40 26 16 92 14 92 -3z"/>
<path d="M4300 4626 c0 -30 33 -55 127 -98 60 -28 78 -31 158 -31 100 0 148
14 143 39 -3 14 -20 17 -113 18 -110 1 -110 1 -209 49 -54 26 -100 47 -102 47
-2 0 -4 -11 -4 -24z"/>
<path d="M5587 4604 c-99 -50 -175 -68 -265 -59 -73 7 -74 7 -70 -16 4 -31 51
-42 163 -37 76 3 100 9 158 37 78 37 107 62 107 91 0 27 -14 25 -93 -16z"/>
<path d="M5139 4354 c-9 -11 -5 -26 25 -73 49 -80 43 -95 -38 -86 -78 8 -94 1
-102 -42 -12 -62 -70 -58 -99 7 -20 43 -46 57 -91 46 -64 -17 -81 19 -39 83
28 41 25 71 -6 71 -27 0 -119 -142 -119 -183 0 -20 10 -41 27 -59 23 -24 35
-28 81 -28 58 0 77 -8 133 -51 49 -39 85 -37 147 5 27 19 76 42 108 52 74 21
114 59 114 107 0 28 -11 48 -50 95 -56 67 -73 78 -91 56z"/>
<path d="M4729 3899 c-76 -50 -176 -149 -185 -185 -4 -17 -1 -31 8 -41 14 -13
25 -11 98 21 106 47 151 53 226 31 53 -15 71 -16 174 -5 109 12 118 11 175 -9
136 -49 165 -45 139 18 -31 75 -195 211 -255 211 -15 0 -49 -11 -75 -25 -58
-31 -59 -31 -120 0 -71 36 -109 33 -185 -16z m148 -44 c19 -8 55 -15 78 -15
23 0 62 7 85 15 79 28 104 22 198 -48 70 -51 58 -66 -28 -38 -79 26 -130 26
-180 1 -49 -25 -67 -25 -132 1 -52 21 -54 21 -131 3 -59 -13 -80 -15 -89 -6
-16 16 20 54 76 82 49 24 75 25 123 5z"/>
<path d="M4732 3640 c-71 -23 -79 -33 -61 -66 20 -38 68 -72 150 -105 77 -31
118 -35 218 -18 91 14 154 44 202 96 49 54 44 63 -44 91 -86 28 -384 28 -465
2z m456 -49 c23 -2 12 -31 -15 -42 -16 -6 -68 -18 -118 -26 -74 -12 -103 -13
-165 -3 -96 16 -120 25 -120 48 0 10 2 21 4 23 4 3 368 3 414 0z"/>
<path d="M1444 5419 c-21 -10 -66 -30 -99 -45 -145 -64 -404 -187 -441 -209
-68 -40 -101 -134 -72 -202 19 -44 118 -153 139 -153 10 0 53 14 95 30 42 17
84 30 92 28 8 -2 22 -25 31 -53 9 -27 26 -69 39 -92 12 -23 22 -47 22 -53 0
-6 -27 -10 -67 -10 -136 0 -257 -45 -330 -121 -112 -118 -96 -291 62 -694 49
-124 57 -145 95 -230 12 -27 29 -66 38 -85 46 -104 177 -368 223 -446 28 -49
59 -102 69 -119 63 -109 260 -400 319 -471 14 -18 46 -57 71 -89 371 -473 868
-866 1447 -1146 68 -32 125 -59 128 -59 3 0 24 -9 48 -19 64 -29 120 -49 262
-96 216 -72 305 -95 510 -135 33 -6 69 -14 80 -17 11 -2 56 -9 100 -14 44 -5
116 -14 160 -19 220 -27 651 -22 915 10 41 5 118 14 170 20 52 6 113 15 135
20 22 5 67 14 100 20 81 16 137 29 220 51 349 95 585 187 930 361 501 253 996
662 1382 1143 95 118 283 384 283 400 0 4 8 19 19 33 94 134 314 598 386 817
35 107 66 217 80 284 41 197 -61 346 -298 436 -53 19 -86 25 -152 25 -96 0
-97 1 -38 78 37 49 83 143 83 170 0 10 6 26 13 36 13 18 19 17 134 -35 23 -10
51 -19 62 -19 28 0 73 41 116 106 30 45 37 65 37 103 0 50 -18 95 -49 123 -10
9 -75 44 -143 77 -211 100 -453 211 -462 211 -4 0 -36 -21 -70 -46 -174 -127
-290 -247 -408 -422 -59 -88 -161 -276 -175 -322 -4 -14 -13 -38 -20 -55 -41
-95 -100 -305 -125 -448 -9 -50 -9 -71 -1 -81 12 -15 187 -136 196 -136 3 0
28 -16 56 -36 28 -19 56 -33 63 -31 19 7 43 100 28 105 -20 6 -13 74 12 127
13 28 43 70 65 95 23 25 41 50 41 57 0 6 5 15 11 19 8 4 9 -1 4 -16 -4 -13 -2
-32 5 -45 18 -33 -11 -117 -61 -184 -21 -28 -39 -56 -39 -61 0 -6 -9 -29 -19
-53 -11 -23 -22 -55 -25 -72 -4 -16 -52 -121 -107 -232 -271 -547 -655 -978
-1142 -1279 -95 -59 -383 -202 -457 -228 -25 -8 -72 -25 -105 -37 -33 -12 -73
-25 -90 -30 -16 -4 -64 -18 -105 -29 -81 -24 -106 -30 -220 -53 -72 -14 -121
-22 -310 -47 -56 -8 -185 -10 -380 -7 -276 5 -355 11 -505 36 -33 6 -76 13
-95 16 -63 11 -240 52 -295 70 -22 6 -60 18 -85 25 -72 20 -253 87 -381 142
-228 97 -520 267 -713 417 -82 65 -323 280 -371 332 -91 100 -166 189 -222
264 -64 86 -175 250 -186 275 -4 8 -20 38 -37 65 -59 99 -170 339 -170 369 0
9 3 15 8 14 13 -4 310 190 321 211 5 9 7 30 4 46 -52 317 -168 624 -331 869
-76 116 -260 307 -388 403 l-80 60 -40 -18z m-5 -210 c7 -56 9 -105 4 -109 -4
-4 -104 -51 -222 -104 -140 -64 -221 -96 -235 -92 -54 13 -98 144 -60 177 18
15 473 227 490 228 5 1 16 -43 23 -100z m7089 10 c37 -18 143 -67 237 -110
184 -86 202 -101 191 -164 -4 -18 -23 -52 -44 -75 l-37 -41 -45 22 c-25 12
-126 59 -225 104 l-180 81 1 53 c3 84 15 161 26 161 5 0 40 -14 76 -31z
m-6840 -59 c182 -180 302 -372 406 -653 38 -101 89 -289 101 -368 l7 -45 -93
-62 c-52 -34 -97 -58 -100 -54 -4 4 -44 111 -89 237 -45 127 -88 249 -97 273
-9 24 -27 51 -40 62 -43 34 -186 73 -376 105 -30 5 -44 16 -72 53 -33 45 -82
149 -74 156 2 2 82 43 177 90 l174 87 -7 82 c-3 45 -9 90 -11 100 -10 32 12
18 94 -63z m6580 -82 l-3 -103 162 -82 c90 -44 168 -83 175 -85 14 -5 -37
-120 -77 -172 -23 -30 -33 -35 -103 -46 -93 -14 -255 -56 -299 -77 -58 -27
-63 -37 -197 -418 -26 -71 -52 -143 -59 -158 l-12 -28 -93 62 c-68 46 -92 67
-92 83 0 12 13 75 29 141 79 323 208 591 387 807 58 69 168 178 181 178 2 0 3
-46 1 -102z m-6848 -528 c58 -10 145 -31 195 -47 l90 -29 27 -156 c69 -405
213 -761 451 -1113 185 -273 382 -482 698 -738 97 -78 364 -246 519 -326 402
-206 777 -323 1230 -382 190 -25 587 -30 770 -10 549 59 999 221 1445 517 198
131 441 352 616 559 314 374 571 881 715 1415 15 52 31 100 36 107 12 15 113
48 205 67 39 9 125 17 191 18 l119 3 85 -42 c144 -72 198 -143 198 -261 0 -63
-9 -100 -64 -265 -150 -456 -365 -869 -633 -1217 -118 -153 -124 -161 -213
-259 -216 -239 -431 -435 -655 -597 -645 -468 -1352 -738 -2155 -825 -157 -17
-613 -17 -775 0 -520 54 -998 193 -1435 420 -857 443 -1555 1229 -1990 2241
-17 41 -39 91 -47 110 -41 95 -156 423 -169 480 -43 201 16 305 196 347 67 15
203 9 350 -17z m432 -337 c46 -48 78 -110 85 -164 l6 -42 -32 6 c-17 4 -43 19
-57 34 -31 34 -84 141 -84 169 0 47 35 46 82 -3z"/>
<path d="M1515 4165 c-22 -8 -123 -39 -225 -71 -102 -31 -186 -58 -188 -59 -5
-5 9 -70 18 -85 7 -11 25 -9 105 15 56 16 99 24 104 19 4 -5 20 -49 35 -97 25
-81 29 -88 49 -82 12 4 30 9 40 12 21 6 21 7 -12 120 -12 40 -21 76 -21 80 0
8 70 33 92 33 11 0 34 -65 74 -207 7 -28 84 -6 84 23 0 8 -11 50 -24 92 -14
42 -35 110 -46 150 -12 39 -27 72 -33 71 -7 0 -30 -7 -52 -14z"/>
<path d="M8277 3948 c-31 -90 -57 -168 -57 -175 0 -6 30 -23 68 -36 267 -100
376 -138 389 -135 14 3 133 310 133 343 0 11 -48 35 -71 35 -4 0 -18 -33 -32
-72 -70 -202 -65 -195 -129 -162 -15 8 -34 14 -43 14 -21 0 -19 15 16 105 52
133 52 133 19 150 -16 8 -35 15 -42 15 -8 0 -29 -46 -52 -110 -21 -61 -42
-113 -47 -115 -12 -8 -89 26 -89 39 0 7 18 63 41 125 25 70 37 117 32 122 -6
6 -25 12 -44 15 l-34 5 -58 -163z"/>
<path d="M1479 3751 c-176 -57 -242 -198 -165 -354 59 -122 175 -162 311 -109
115 45 175 119 175 219 0 190 -147 302 -321 244z m162 -106 c39 -21 69 -71 69
-116 0 -77 -83 -145 -192 -156 -53 -5 -57 -4 -93 29 -74 67 -61 168 27 218 75
42 139 50 189 25z"/>
<path d="M8186 3649 c-16 -12 -56 -80 -96 -160 l-70 -139 23 -15 c13 -8 77
-39 143 -68 65 -30 147 -69 182 -86 114 -58 110 -57 133 -4 11 25 18 47 16 49
-1 2 -42 21 -90 43 -48 22 -87 45 -87 51 0 46 46 73 155 89 124 19 123 19 150
73 14 28 24 52 22 54 -8 8 -191 -17 -223 -31 -20 -8 -38 -15 -39 -15 -2 0 -3
20 -3 45 1 31 -5 55 -19 73 -44 60 -146 81 -197 41z m118 -105 c23 -23 20 -51
-15 -124 -17 -36 -32 -66 -34 -68 -4 -4 -105 47 -105 53 0 9 61 129 72 143 14
17 63 15 82 -4z"/>
<path d="M1668 3261 c-114 -69 -210 -129 -213 -132 -9 -10 36 -79 51 -79 8 0
49 20 92 45 42 25 79 45 83 45 9 0 29 -49 29 -72 0 -11 -21 -66 -46 -122 l-46
-102 29 -47 c15 -26 32 -47 36 -47 11 0 97 183 97 207 0 31 9 33 47 7 65 -44
150 -23 193 48 35 57 27 92 -47 220 -38 64 -75 125 -83 135 -14 19 -23 15
-222 -106z m248 -104 c29 -54 27 -89 -7 -108 -37 -20 -68 -2 -109 64 -22 34
-40 67 -40 72 0 6 21 22 48 37 l47 27 17 -22 c10 -12 29 -44 44 -70z"/>
<path d="M7972 3278 c-29 -42 -29 -44 -11 -54 10 -5 78 -49 150 -99 155 -105
170 -127 136 -188 -50 -89 -77 -85 -261 38 -126 85 -148 96 -161 85 -17 -14
-49 -70 -43 -74 33 -25 282 -187 305 -199 40 -21 105 -22 143 -2 35 18 94 89
115 138 20 49 19 116 -3 150 -10 15 -43 45 -73 68 -48 36 -243 169 -261 177
-3 2 -20 -17 -36 -40z"/>
<path d="M7651 2829 c-62 -78 -115 -149 -118 -158 -2 -9 7 -27 22 -41 l27 -25
26 30 c15 17 37 43 49 59 22 28 23 28 46 10 88 -68 266 -214 272 -223 3 -6 13
-11 21 -11 19 0 63 50 63 70 0 8 -63 65 -140 125 -77 61 -147 117 -155 126
-13 15 -11 22 26 67 22 28 40 56 40 61 0 8 -52 51 -62 51 -1 0 -54 -64 -117
-141z"/>
<path d="M2055 2739 c-82 -72 -167 -147 -188 -166 l-38 -34 78 -87 c43 -48 95
-107 115 -132 l37 -45 27 21 c15 11 29 25 31 31 2 6 -30 50 -71 98 -42 47 -76
90 -76 95 0 4 64 63 143 130 78 67 145 128 149 135 5 7 -6 27 -25 49 l-32 36
-150 -131z"/>
<path d="M2290 2403 l-173 -177 138 -133 139 -133 31 30 30 31 -97 95 c-54 52
-98 98 -98 103 0 4 20 26 44 50 l44 43 91 -87 90 -87 30 30 30 30 -92 90 -91
91 38 36 39 37 71 -70 c87 -84 118 -112 126 -112 14 0 52 50 47 62 -5 14 -250
248 -259 248 -3 0 -83 -80 -178 -177z"/>
<path d="M7346 2489 c-14 -17 -26 -34 -26 -37 0 -8 338 -335 351 -340 11 -5
234 227 237 248 2 10 -9 27 -25 40 l-28 22 -78 -86 c-43 -47 -84 -86 -90 -86
-7 0 -76 61 -154 135 -79 74 -147 135 -152 135 -5 0 -21 -14 -35 -31z"/>
<path d="M7261 2400 c-20 -17 -31 -35 -28 -43 3 -8 44 -68 92 -133 105 -143
117 -166 109 -199 -13 -52 -86 -89 -138 -69 -8 3 -61 67 -117 142 -56 76 -106
141 -109 145 -11 12 -80 -35 -80 -53 0 -8 24 -47 53 -85 28 -39 76 -103 105
-142 29 -39 67 -81 86 -92 66 -41 159 -22 241 51 69 60 84 134 43 207 -29 51
-154 224 -193 267 l-30 33 -34 -29z"/>
<path d="M2779 2192 c-151 -104 -354 -245 -358 -249 -6 -4 26 -29 62 -49 27
-14 30 -14 76 19 l47 34 80 -54 c53 -36 78 -59 76 -71 -16 -112 -17 -106 25
-135 21 -15 42 -27 45 -27 3 0 8 12 11 28 3 15 29 132 57 260 27 128 50 234
50 236 0 1 -20 17 -44 34 l-43 31 -84 -57z m36 -164 c-25 -104 -23 -103 -82
-61 l-52 36 72 52 c40 29 74 51 76 49 2 -2 -5 -36 -14 -76z"/>
<path d="M6805 2081 c-135 -61 -181 -190 -116 -327 47 -100 117 -158 203 -170
123 -17 248 85 248 201 0 69 -7 76 -60 67 -45 -8 -45 -8 -42 -46 6 -77 -36
-127 -109 -128 -53 -1 -97 35 -137 110 -42 79 -43 129 -3 174 25 28 35 32 72
32 24 -1 56 -5 70 -8 20 -6 33 -2 57 19 38 32 33 48 -22 75 -52 25 -108 25
-161 1z"/>
<path d="M3083 1973 c-28 -49 -66 -115 -84 -148 -19 -33 -53 -91 -76 -130
l-42 -70 37 -22 c20 -13 42 -23 49 -23 6 0 33 38 60 85 26 47 51 85 55 85 4 0
21 -12 38 -27 29 -27 30 -33 40 -142 5 -62 14 -119 20 -126 11 -14 89 -50 93
-44 5 6 -11 212 -18 234 -5 18 -1 20 49 20 44 0 59 5 81 25 38 35 55 73 55
121 0 56 -41 95 -188 182 -62 37 -114 67 -115 67 -2 0 -26 -39 -54 -87z m205
-105 c31 -22 42 -36 42 -55 0 -34 -26 -63 -56 -63 -21 0 -154 66 -154 76 0 2
14 26 31 54 l31 50 31 -17 c18 -8 51 -29 75 -45z"/>
<path d="M3500 1834 c-6 -15 -44 -111 -84 -213 -98 -248 -93 -227 -55 -240 52
-18 64 -14 78 27 37 102 94 242 97 239 2 -2 18 -77 34 -168 17 -90 33 -171 35
-179 3 -9 25 -23 50 -32 42 -16 45 -16 54 0 15 30 171 438 171 449 0 14 -79
39 -88 27 -5 -5 -30 -67 -56 -139 -27 -71 -52 -134 -57 -139 -4 -5 -10 7 -13
25 -23 141 -57 313 -66 329 -5 10 -20 22 -32 25 -13 4 -31 9 -40 11 -13 4 -21
-3 -28 -22z"/>
<path d="M6200 1783 c-19 -8 -68 -28 -107 -45 -40 -16 -73 -35 -73 -41 0 -7
40 -111 88 -232 80 -199 91 -220 111 -217 42 6 225 92 253 119 81 78 63 250
-38 362 -20 23 -50 49 -65 57 -36 18 -124 17 -169 -3z m128 -93 c64 -39 119
-210 83 -254 -15 -18 -88 -58 -127 -70 -20 -6 -26 5 -78 136 -31 79 -56 148
-56 155 0 13 93 52 125 52 11 1 35 -8 53 -19z"/>
<path d="M3883 1487 c-87 -296 -85 -271 -26 -284 26 -6 49 -11 49 -10 4 5 134
466 134 475 0 7 -71 32 -92 32 -2 0 -31 -96 -65 -213z"/>
<path d="M5930 1693 c-8 -2 -20 -6 -26 -8 -8 -2 -1 -47 22 -141 19 -76 34
-147 34 -158 0 -15 -37 18 -132 117 l-133 137 -47 -11 c-27 -6 -48 -14 -48
-18 0 -7 88 -386 105 -453 8 -30 14 -32 64 -22 39 8 39 13 1 164 -16 65 -30
127 -30 137 0 11 47 -29 133 -114 l132 -132 48 10 c26 6 47 15 47 20 0 5 -14
67 -31 137 -17 70 -39 165 -50 212 -10 47 -21 95 -24 108 -5 22 -29 27 -65 15z"/>
<path d="M4052 1417 c-29 -132 -49 -244 -45 -248 4 -4 27 -11 49 -15 41 -6 42
-6 47 27 10 68 50 254 56 261 4 4 34 -69 66 -163 65 -185 68 -189 141 -189 21
0 34 5 34 13 0 6 21 114 46 239 26 125 45 231 41 234 -3 4 -26 9 -52 11 -43 5
-45 5 -45 -21 0 -15 -6 -55 -14 -89 -8 -34 -20 -90 -27 -124 -6 -35 -15 -63
-18 -63 -4 0 -18 33 -31 73 -57 166 -98 270 -111 277 -8 4 -30 10 -50 13 l-35
5 -52 -241z"/>
<path d="M5324 1581 c-17 -7 -31 -42 -69 -173 -26 -89 -60 -205 -75 -255 l-27
-93 41 0 c56 0 69 11 86 72 l16 53 89 8 c50 4 96 5 102 2 7 -2 23 -26 36 -52
l23 -48 49 4 c28 1 53 5 56 7 4 2 -92 199 -215 439 -18 34 -26 40 -56 42 -19
1 -44 -2 -56 -6z m116 -287 c0 -10 -16 -14 -59 -14 l-60 0 20 73 c11 39 22 79
25 87 6 15 74 -119 74 -146z"/>
<path d="M4649 1566 c-131 -46 -191 -195 -144 -353 18 -59 82 -124 142 -144
59 -19 189 -7 249 24 l51 26 6 97 c4 53 4 100 1 105 -3 5 -52 9 -110 9 -92 0
-104 -2 -104 -17 0 -10 -3 -28 -6 -40 -6 -22 -4 -23 55 -23 l61 0 0 -34 c0
-30 -4 -36 -40 -50 -22 -9 -60 -16 -85 -16 -110 0 -165 133 -109 265 19 46 59
69 122 69 49 1 56 -2 88 -36 30 -33 40 -38 79 -38 39 0 45 3 45 20 0 104 -173
182 -301 136z"/>
</g>
</svg>
